<svg width="1200" height="420" viewBox="0 0 1200 420" fill="none" xmlns="http://www.w3.org/2000/svg">
  <defs>
    <linearGradient id="bg" x1="40" y1="30" x2="1160" y2="390" gradientUnits="userSpaceOnUse">
      <stop stop-color="#07111F"/>
      <stop offset="0.48" stop-color="#0B2236"/>
      <stop offset="1" stop-color="#0A1725"/>
    </linearGradient>
    <radialGradient id="glow1" cx="0" cy="0" r="1" gradientUnits="userSpaceOnUse" gradientTransform="translate(927 78) rotate(137.5) scale(350 260)">
      <stop stop-color="#34D3FF" stop-opacity="0.24"/>
      <stop offset="1" stop-color="#34D3FF" stop-opacity="0"/>
    </radialGradient>
    <radialGradient id="glow2" cx="0" cy="0" r="1" gradientUnits="userSpaceOnUse" gradientTransform="translate(239 371) rotate(-35) scale(430 260)">
      <stop stop-color="#7C5CFF" stop-opacity="0.19"/>
      <stop offset="1" stop-color="#7C5CFF" stop-opacity="0"/>
    </radialGradient>
    <linearGradient id="line" x1="735" y1="85" x2="1090" y2="325" gradientUnits="userSpaceOnUse">
      <stop stop-color="#5BE7FF" stop-opacity="0.95"/>
      <stop offset="1" stop-color="#8F7CFF" stop-opacity="0.55"/>
    </linearGradient>
  </defs>

  <rect width="1200" height="420" rx="28" fill="url(#bg)"/>
  <rect width="1200" height="420" rx="28" fill="url(#glow1)"/>
  <rect width="1200" height="420" rx="28" fill="url(#glow2)"/>

  <g opacity="0.7">
    <path d="M760 130C820 74 908 82 954 140C1003 202 962 256 1027 300" stroke="url(#line)" stroke-width="2"/>
    <path d="M725 235C793 178 861 186 905 226C950 266 1001 269 1082 224" stroke="url(#line)" stroke-width="1.6" stroke-dasharray="7 9"/>
    <path d="M817 324C844 277 903 256 957 280C1000 299 1037 338 1090 334" stroke="url(#line)" stroke-width="1.4"/>
    <circle cx="760" cy="130" r="7" fill="#59E3FF"/>
    <circle cx="954" cy="140" r="8" fill="#79D7FF"/>
    <circle cx="1027" cy="300" r="8" fill="#8D79FF"/>
    <circle cx="725" cy="235" r="6" fill="#57E0FF"/>
    <circle cx="905" cy="226" r="7" fill="#6ED4FF"/>
    <circle cx="1082" cy="224" r="7" fill="#927DFF"/>
    <circle cx="817" cy="324" r="5" fill="#5EE2FF"/>
    <circle cx="957" cy="280" r="6" fill="#7AB8FF"/>
    <circle cx="1090" cy="334" r="7" fill="#9B81FF"/>
  </g>

  <g opacity="0.15" stroke="#BDEEFF">
    <path d="M650 56H1110"/>
    <path d="M650 364H1110"/>
    <path d="M674 40V380"/>
    <path d="M1090 40V380"/>
  </g>

  <text x="78" y="122" fill="#72E7FF" font-size="20" font-family="Inter,Segoe UI,Arial,sans-serif" font-weight="600" letter-spacing="5">RESEARCHER × BUILDER</text>
  <text x="74" y="205" fill="white" font-size="70" font-family="Inter,Segoe UI,Arial,sans-serif" font-weight="760">Romain Li</text>
  <text x="78" y="254" fill="#C5D6E3" font-size="25" font-family="Inter,Segoe UI,Arial,sans-serif" font-weight="500">Causal Inference · World Models · Healthcare AI</text>
  <text x="78" y="311" fill="#8DA8BA" font-size="18" font-family="JetBrains Mono,Consolas,monospace">reasoning about interventions, counterfactuals, and decisions</text>
  <rect x="78" y="340" width="232" height="34" rx="17" fill="#0F3044" stroke="#2A7391"/>
  <text x="96" y="362" fill="#BCEFFF" font-size="15" font-family="JetBrains Mono,Consolas,monospace">Harvard Medical School</text>
  <rect x="324" y="340" width="220" height="34" rx="17" fill="#181C3B" stroke="#4C4B8F"/>
  <text x="343" y="362" fill="#D7D2FF" font-size="15" font-family="JetBrains Mono,Consolas,monospace">Northwestern Biostat</text>
</svg>